<?xml version="1.0" standalone="no"?>
<!DOCTYPE svg PUBLIC "-//W3C//DTD SVG 20010904//EN"
 "http://www.w3.org/TR/2001/REC-SVG-20010904/DTD/svg10.dtd">
<svg version="1.0" xmlns="http://www.w3.org/2000/svg"
 width="683.000000pt" height="531.000000pt" viewBox="0 0 683.000000 531.000000"
 preserveAspectRatio="xMidYMid meet">

<g transform="translate(0.000000,531.000000) scale(0.100000,-0.100000)"
fill="#000000" stroke="none">
<path d="M4382 5188 c61 -63 98 -151 104 -251 3 -45 7 -97 9 -115 2 -21 0 -30
-7 -26 -7 5 -9 -4 -6 -27 3 -21 0 -38 -8 -47 -8 -7 -14 -19 -14 -25 0 -7 5 -6
11 3 9 12 10 12 5 -3 -3 -11 -9 -30 -12 -44 -5 -19 -9 -22 -16 -11 -7 9 -8 8
-4 -6 4 -11 -1 -27 -11 -39 -10 -11 -12 -17 -6 -13 9 5 11 2 7 -8 -3 -9 -10
-13 -15 -10 -5 3 -6 -2 -3 -10 9 -23 -86 -184 -191 -326 -116 -157 -182 -271
-201 -343 -4 -18 -9 -24 -14 -17 -14 23 -43 -114 -44 -206 -1 -73 2 -94 16
-108 16 -16 17 -12 16 61 -1 85 10 183 20 182 19 -3 32 2 32 12 0 6 -7 9 -15
5 -8 -3 -15 -1 -15 4 0 6 9 10 20 10 11 0 20 5 20 11 0 5 4 8 10 4 5 -3 7 -12
4 -19 -3 -8 0 -17 5 -21 6 -3 9 -10 6 -15 -3 -5 -1 -12 5 -15 6 -4 9 -1 8 7
-2 7 2 12 9 11 7 -2 10 3 7 11 -3 7 2 16 10 19 9 4 16 12 16 19 0 9 -3 9 -10
-2 -5 -8 -12 -11 -16 -7 -12 12 7 22 49 26 4 1 7 6 7 11 0 12 1 13 78 103 108
124 246 338 314 484 61 133 82 220 82 348 1 103 -1 114 -30 175 -17 36 -46 83
-64 104 -51 58 -175 146 -205 146 -3 0 14 -19 37 -42z m-279 -1375 c-5 -11 -8
-12 -13 -2 -5 7 -6 19 -3 26 5 11 8 12 13 2 5 -7 6 -19 3 -26z"/>
<path d="M4687 4935 c37 -78 38 -84 51 -260 9 -117 6 -157 -10 -133 -5 8 -6 2
-2 -16 5 -20 4 -27 -4 -22 -8 5 -10 2 -6 -8 7 -19 -42 -109 -105 -191 -25 -33
-106 -123 -181 -200 -149 -154 -231 -258 -278 -351 -39 -76 -64 -164 -60 -206
3 -31 5 -33 43 -33 24 0 45 -6 53 -15 10 -12 10 -10 2 13 -14 40 -12 45 8 22
16 -19 18 -19 33 -4 9 8 15 24 13 33 -1 10 0 15 3 12 3 -3 18 20 33 52 55 115
205 288 358 412 62 50 155 168 192 244 40 80 59 168 59 266 0 64 -5 88 -37
166 -21 50 -59 122 -85 160 -47 70 -100 134 -110 134 -3 0 10 -34 30 -75z"/>
<path d="M4945 4604 c5 -16 9 -69 9 -119 1 -77 -3 -98 -26 -147 -61 -130 -181
-272 -372 -436 -101 -87 -172 -174 -226 -273 -30 -57 -38 -89 -21 -89 5 0 7
10 3 22 -4 16 -2 20 10 15 9 -3 20 -1 26 5 6 6 12 6 17 -2 7 -11 45 24 45 42
0 4 5 8 11 8 8 0 7 -6 -2 -17 -7 -10 32 25 87 78 54 53 144 137 199 187 223
201 326 336 361 472 27 107 -6 196 -98 261 l-31 22 8 -29z"/>
<path d="M5370 3935 c-366 -50 -707 -212 -935 -444 -98 -99 -118 -131 -67
-107 15 7 53 25 85 40 154 71 442 152 638 181 200 28 431 15 594 -35 91 -28
206 -90 273 -147 196 -168 301 -518 261 -873 -7 -63 -13 -129 -13 -147 -1 -17
-4 -29 -7 -27 -9 5 -31 -104 -23 -117 5 -8 3 -9 -6 -4 -10 6 -12 3 -8 -13 4
-12 3 -20 -2 -17 -10 6 -23 -42 -15 -55 4 -6 1 -10 -5 -10 -7 0 -9 -7 -6 -16
4 -10 2 -13 -6 -8 -8 5 -9 2 -5 -9 8 -22 -2 -49 -16 -40 -6 4 -8 0 -4 -10 8
-22 -2 -49 -15 -41 -6 4 -8 -1 -4 -14 5 -14 1 -27 -12 -40 -10 -10 -17 -23
-15 -29 2 -6 -3 -17 -11 -26 -8 -8 -12 -17 -9 -21 4 -3 1 -6 -5 -6 -7 0 -11
-3 -10 -8 5 -17 -14 -52 -25 -46 -7 4 -9 4 -5 -1 18 -20 -182 -326 -331 -505
-207 -249 -523 -568 -856 -866 -72 -64 -120 -107 -340 -302 l-60 -53 100 50
c246 124 548 304 775 464 857 600 1334 1227 1446 1902 23 138 23 389 0 519
-77 430 -313 709 -706 834 -185 59 -432 77 -650 47z"/>
<path d="M3459 3640 c-205 -32 -364 -180 -443 -414 -42 -124 -58 -381 -24
-402 6 -4 20 5 32 19 30 36 95 75 139 83 44 7 47 13 72 124 20 87 29 106 90
194 51 73 120 128 198 159 44 17 75 21 192 21 119 1 153 -3 225 -23 47 -13 91
-31 98 -40 7 -9 18 -15 23 -13 6 1 8 -2 4 -8 -3 -5 4 -25 16 -43 34 -50 226
-237 244 -237 8 0 15 -4 15 -10 0 -5 7 -10 15 -10 9 0 -21 30 -66 66 -113 91
-184 170 -208 231 -7 18 -16 31 -20 30 -17 -5 -53 35 -76 86 -21 45 -32 57
-55 62 -17 4 -32 11 -35 15 -15 25 -179 90 -265 106 -56 11 -118 12 -171 4z"/>
<path d="M470 3443 c-117 -18 -212 -66 -285 -144 -72 -78 -98 -147 -99 -259
-1 -102 18 -164 72 -235 55 -73 121 -119 272 -192 74 -36 156 -81 183 -100
156 -115 137 -337 -36 -414 -76 -34 -247 -34 -375 -1 -41 11 -64 23 -68 34
-10 32 -33 19 -44 -24 -6 -24 -17 -62 -25 -86 -13 -41 -13 -43 10 -58 42 -27
161 -63 251 -75 134 -17 293 8 404 66 48 25 128 102 158 155 26 43 27 51 27
185 0 131 -2 144 -27 197 -46 100 -159 199 -293 258 -175 77 -244 123 -281
186 -27 45 -45 154 -26 154 5 0 12 10 16 23 9 37 72 103 121 126 67 31 225 30
326 -3 41 -13 77 -22 81 -19 5 2 8 15 8 27 0 40 12 86 21 80 5 -3 9 1 9 10 0
19 -59 78 -71 70 -5 -3 -9 0 -9 6 0 7 -8 9 -21 5 -13 -4 -19 -3 -16 3 13 20
-194 39 -283 25z"/>
<path d="M4794 3331 c-2 -2 -4 -129 -4 -282 l0 -277 -22 5 c-13 3 -34 16 -48
28 -14 13 -50 38 -80 56 -51 30 -62 33 -140 33 -74 0 -93 -4 -143 -29 -163
-81 -257 -265 -257 -502 1 -218 91 -389 247 -469 51 -26 68 -29 148 -29 79 0
97 4 148 28 32 16 81 53 111 84 l54 56 7 -77 7 -76 85 0 c84 0 85 0 77 23 -4
12 -11 337 -14 722 -3 385 -7 701 -8 702 -5 4 -164 8 -168 4z m-135 -611 c51
-26 96 -81 112 -139 9 -30 14 -102 14 -211 0 -154 -2 -168 -23 -210 -49 -93
-108 -131 -218 -138 -81 -5 -121 10 -167 62 -64 71 -91 157 -90 286 0 84 4
104 33 172 58 138 132 198 243 198 38 0 71 -7 96 -20z"/>
<path d="M5425 2917 c-127 -34 -243 -129 -297 -242 -85 -184 -72 -437 33 -594
48 -72 94 -110 186 -153 58 -28 82 -33 163 -36 78 -3 107 0 160 18 166 55 278
187 294 345 32 327 -43 513 -254 627 -66 35 -84 41 -155 44 -46 2 -101 -2
-130 -9z m200 -156 c84 -39 138 -134 156 -270 24 -195 -39 -369 -153 -425 -66
-32 -166 -38 -214 -13 -115 60 -186 293 -138 457 9 30 17 65 17 77 1 11 5 19
8 17 3 -2 13 12 22 30 24 52 78 107 122 127 51 24 129 24 180 0z"/>
<path d="M1243 2886 c-69 -16 -154 -51 -164 -68 -7 -11 17 -94 32 -114 6 -8
23 -4 57 12 109 52 263 53 328 2 36 -29 64 -93 64 -149 l0 -45 -117 -12 c-136
-13 -218 -38 -301 -91 -99 -65 -149 -168 -140 -293 5 -79 29 -130 89 -190 60
-60 131 -83 231 -75 84 7 143 33 202 88 26 23 49 39 52 36 3 -3 8 -27 12 -54
l7 -48 88 -3 c71 -2 87 0 87 12 0 8 -4 18 -10 21 -6 4 -10 114 -10 298 0 321
-10 419 -54 504 -31 62 -87 114 -156 148 -69 33 -202 42 -297 21z m327 -600
c0 -111 -12 -156 -52 -202 -43 -48 -101 -76 -164 -78 -29 0 -50 -4 -47 -8 9
-15 -52 14 -76 35 -101 93 -40 272 110 323 52 17 190 34 217 26 8 -3 12 -31
12 -96z"/>
<path d="M2145 2887 c-66 -22 -132 -65 -181 -120 -84 -93 -122 -195 -131 -353
-17 -298 147 -526 381 -528 103 0 168 25 240 93 l59 56 -5 -111 c-8 -159 -45
-235 -143 -287 -34 -19 -56 -22 -152 -22 -63 0 -106 -4 -100 -8 8 -6 6 -7 -5
-3 -9 2 -34 10 -56 15 -22 6 -51 21 -66 32 -15 12 -29 20 -30 18 -2 -2 -13
-37 -24 -77 l-21 -74 43 -19 c148 -65 400 -63 533 4 26 14 69 47 95 74 46 50
86 113 71 113 -5 0 -3 4 4 8 12 7 17 38 32 172 4 41 8 279 9 527 1 522 8 486
-92 481 l-61 -3 -5 -59 c-3 -33 -10 -61 -16 -63 -6 -2 -36 19 -68 47 -31 27
-61 50 -65 50 -4 0 -17 9 -29 20 -28 27 -157 36 -217 17z m222 -158 c38 -14
90 -65 116 -114 20 -37 22 -55 22 -215 0 -194 -7 -229 -59 -288 -43 -49 -99
-71 -182 -73 -80 -3 -115 12 -164 67 -60 68 -74 115 -74 244 -1 119 4 170 15
170 3 0 12 18 19 39 19 58 79 131 129 158 48 25 129 31 178 12z"/>
<path d="M3122 2873 c-46 -23 -107 -86 -131 -138 -12 -25 -23 -45 -26 -45 -10
0 -28 46 -32 79 -11 103 -8 99 -71 103 -31 2 -62 2 -68 1 -8 -3 -11 -147 -12
-499 l-1 -494 99 0 c80 0 100 3 100 14 0 8 -5 18 -11 22 -7 4 -9 88 -4 283 9
338 8 311 17 311 4 0 8 6 8 13 0 43 89 146 143 166 16 6 53 11 83 11 40 0 54
4 54 14 0 8 -4 18 -10 21 -5 3 -10 30 -10 58 0 87 -6 97 -54 97 -22 0 -56 -8
-74 -17z"/>
<path d="M3445 2871 c-87 -26 -115 -39 -121 -55 -5 -14 22 -126 30 -126 2 0
30 12 62 26 46 21 79 28 154 31 85 4 100 2 140 -19 56 -28 90 -89 90 -159 l0
-47 -67 -6 c-250 -21 -396 -92 -460 -224 -37 -77 -40 -203 -5 -273 30 -62 77
-107 140 -137 46 -21 65 -23 135 -20 96 4 170 34 229 93 21 20 42 34 48 30 5
-3 10 -28 10 -56 l0 -49 96 0 96 0 -16 25 c-13 20 -16 60 -16 252 -1 327 -12
469 -43 536 -33 72 -82 126 -142 153 -27 13 -45 24 -40 25 6 1 -3 5 -20 9 -59
15 -237 10 -300 -9z m364 -604 c-4 -106 -6 -117 -34 -162 -40 -65 -103 -98
-195 -103 -63 -4 -69 -2 -103 28 -79 69 -73 184 15 266 61 58 132 82 247 83
l73 1 -3 -113z"/>
<path d="M3156 2660 c-58 -18 -125 -108 -126 -168 0 -50 118 -339 165 -404 16
-22 16 -21 10 30 -8 64 7 136 47 215 27 55 28 59 14 100 -7 23 -19 69 -26 102
-28 143 -27 142 -84 125z"/>
<path d="M3340 1873 c0 -24 280 -317 402 -421 142 -121 435 -328 447 -317 6 6
1 11 -97 93 -40 34 -71 62 -69 62 2 0 -17 21 -42 48 -97 100 -246 274 -345
405 l-59 77 -62 0 c-50 0 -74 6 -119 29 -31 17 -56 27 -56 24z"/>
<path d="M6138 1263 c12 -2 30 -2 40 0 9 3 -1 5 -23 4 -22 0 -30 -2 -17 -4z"/>
<path d="M6085 1239 c-11 -16 -1 -19 13 -3 7 8 8 14 3 14 -5 0 -13 -5 -16 -11z"/>
<path d="M6121 1204 c0 -11 3 -14 6 -6 3 7 2 16 -1 19 -3 4 -6 -2 -5 -13z"/>
<path d="M6243 1170 c0 -30 2 -43 4 -27 2 15 2 39 0 55 -2 15 -4 2 -4 -28z"/>
<path d="M6063 1175 c0 -22 2 -30 4 -17 2 12 2 30 0 40 -3 9 -5 -1 -4 -23z"/>
<path d="M6181 1194 c0 -11 3 -14 6 -6 3 7 2 16 -1 19 -3 4 -6 -2 -5 -13z"/>
<path d="M6122 1145 c0 -16 2 -22 5 -12 2 9 2 23 0 30 -3 6 -5 -1 -5 -18z"/>
<path d="M4482 1088 c-14 -14 -16 -38 -4 -38 4 0 12 4 18 10 6 6 21 6 43 -3
29 -11 34 -10 46 7 19 25 9 39 -15 24 -15 -10 -22 -10 -32 0 -15 15 -41 15
-56 0z"/>
<path d="M6118 1083 c7 -3 16 -2 19 1 4 3 -2 6 -13 5 -11 0 -14 -3 -6 -6z"/>
<path d="M6178 1083 c6 -2 18 -2 25 0 6 3 1 5 -13 5 -14 0 -19 -2 -12 -5z"/>
<path d="M195 1008 c-3 -8 -4 -74 -3 -148 3 -119 5 -135 21 -138 15 -3 17 5
17 57 0 33 4 63 10 66 20 12 50 -16 61 -58 13 -48 25 -67 45 -67 21 0 17 39
-10 96 -23 50 -23 52 -5 68 26 22 26 87 -1 111 -27 24 -127 34 -135 13z m99
-44 c33 -32 10 -79 -36 -72 -39 5 -39 88 1 88 11 0 27 -7 35 -16z"/>
<path d="M507 1014 c-4 -4 -7 -69 -7 -145 0 -157 -2 -154 91 -147 36 2 44 6
44 23 0 17 -8 20 -47 23 l-47 3 2 42 c2 42 2 42 45 45 67 5 52 42 -17 42 -26
0 -28 3 -27 38 2 37 2 37 49 40 39 3 48 6 45 20 -3 13 -16 18 -64 20 -33 2
-63 0 -67 -4z"/>
<path d="M793 1013 c-10 -3 -13 -42 -13 -144 l0 -139 25 -6 c32 -8 93 3 123
23 49 31 68 141 36 208 -9 19 -30 40 -49 49 -32 15 -96 20 -122 9z m121 -63
c27 -26 28 -115 3 -153 -14 -22 -25 -27 -58 -27 l-40 0 2 98 c1 53 4 101 6
106 8 13 66 -3 87 -24z"/>
<path d="M1130 1012 c-6 -2 -10 -57 -10 -143 0 -157 -2 -154 91 -147 36 2 44
6 44 23 0 17 -8 20 -48 23 l-48 3 3 42 c3 42 3 42 46 45 28 2 42 8 42 17 0 14
-34 29 -56 24 -29 -5 -35 3 -32 39 3 37 3 37 51 40 39 3 48 6 45 20 -3 14 -15
17 -60 17 -32 0 -62 -1 -68 -3z"/>
<path d="M1673 1004 c-2 -5 -2 -71 -1 -145 l3 -134 35 -3 c19 -1 53 3 75 11
90 30 115 192 39 259 -22 19 -144 29 -151 12z m130 -55 c11 -14 17 -38 17 -75
0 -63 -27 -102 -75 -106 l-30 -3 -3 94 c-1 52 0 101 3 109 8 20 65 8 88 -19z"/>
<path d="M2014 1005 c-3 -6 -3 -72 -2 -146 l3 -134 65 0 c58 0 65 2 65 20 0
17 -7 20 -45 21 l-45 0 -3 47 -3 47 40 0 c55 0 58 27 4 32 -37 3 -38 4 -38 43
l0 40 48 3 c48 3 66 25 29 36 -28 9 -114 2 -118 -9z"/>
<path d="M2603 1012 l-43 -3 0 -145 0 -144 65 0 c64 0 65 1 65 26 0 26 -2 26
-45 22 -40 -5 -46 -3 -50 16 -2 11 -3 32 -2 46 2 22 7 25 45 28 34 3 43 7 40
20 -3 13 -12 16 -40 14 -41 -4 -54 16 -42 62 5 23 11 26 50 26 36 0 44 3 44
19 0 19 -1 20 -87 13z"/>
<path d="M2863 1012 c-23 -3 -23 -6 -23 -149 l0 -146 55 6 c63 6 109 30 124
64 6 13 11 54 11 91 0 89 -24 122 -96 131 -27 3 -59 5 -71 3z m86 -47 c31 -16
41 -39 41 -101 0 -57 -30 -94 -76 -94 l-34 0 0 98 c0 54 3 102 7 105 10 11 32
8 62 -8z"/>
<path d="M3180 908 c0 -137 5 -155 41 -173 41 -22 82 -18 112 9 34 32 38 52
35 171 -2 81 -6 100 -18 100 -12 0 -16 -21 -20 -113 -4 -98 -8 -116 -24 -128
-26 -18 -39 -18 -65 4 -18 15 -21 29 -23 127 -3 95 -5 110 -20 113 -16 3 -18
-7 -18 -110z"/>
<path d="M3569 1005 c-49 -27 -72 -123 -49 -206 13 -47 39 -69 88 -76 32 -4
44 -1 61 16 33 33 26 41 -28 34 -45 -5 -50 -3 -67 22 -25 39 -24 117 3 153 21
28 47 33 91 18 28 -9 29 7 2 34 -23 23 -64 25 -101 5z"/>
<path d="M3883 1008 c-14 -20 -87 -277 -80 -284 13 -13 38 7 43 35 5 22 13 31
33 35 56 11 75 3 87 -34 11 -33 36 -51 47 -33 3 5 -4 40 -15 78 -31 108 -39
138 -45 165 -8 34 -22 50 -43 50 -10 0 -22 -6 -27 -12z m47 -107 c6 -28 9 -55
5 -61 -8 -13 -52 -13 -60 0 -9 14 24 122 34 115 5 -3 14 -27 21 -54z"/>
<path d="M4182 995 c-74 -62 -62 -232 18 -265 23 -9 30 -18 28 -34 -2 -12 -9
-21 -15 -21 -7 0 -13 -3 -13 -7 0 -5 0 -12 0 -18 0 -5 11 -10 25 -10 28 0 46
27 38 58 -4 16 1 24 21 33 17 8 26 20 26 36 0 20 -3 22 -19 13 -29 -15 -77
-12 -91 5 -21 25 -24 106 -7 147 18 42 52 57 87 38 26 -14 34 -8 26 18 -13 39
-82 42 -124 7z"/>
<path d="M4513 1012 c-18 -11 -94 -275 -83 -286 13 -13 38 10 42 37 2 18 11
23 51 28 52 5 60 0 71 -44 5 -20 12 -27 24 -25 20 4 20 24 -1 98 -9 30 -24 84
-34 120 -21 77 -37 93 -70 72z m37 -104 c6 -24 13 -49 15 -55 2 -7 1 -14 -3
-14 -40 -6 -62 -7 -66 0 -7 11 24 111 34 111 5 0 14 -19 20 -42z"/>
<path d="M4798 991 c-30 -27 -33 -34 -36 -103 -5 -100 12 -142 66 -159 30 -9
48 -9 75 0 56 19 72 52 72 149 0 82 -1 84 -33 113 -45 40 -99 40 -144 0z m114
-28 c40 -46 29 -174 -18 -195 -32 -15 -71 3 -85 39 -18 46 -6 133 21 155 28
23 62 23 82 1z"/>
</g>
</svg>
